<?xml version="1.0" standalone="no"?>
<!DOCTYPE svg PUBLIC "-//W3C//DTD SVG 20010904//EN"
 "http://www.w3.org/TR/2001/REC-SVG-20010904/DTD/svg10.dtd">
<svg version="1.0" xmlns="http://www.w3.org/2000/svg"
 width="512.000000pt" height="512.000000pt" viewBox="0 0 512.000000 512.000000"
 preserveAspectRatio="xMidYMid meet">

<g transform="translate(0.000000,512.000000) scale(0.100000,-0.100000)"
fill="#000000" stroke="none">
<path d="M4593 5110 c-30 -12 -56 -66 -48 -99 3 -14 19 -40 35 -56 l30 -31
-303 -301 -302 -301 -123 55 c-93 42 -130 53 -150 48 -17 -4 -131 -109 -312
-290 l-285 -283 -31 15 c-18 9 -42 13 -55 10 -14 -4 -401 -383 -876 -859
l-853 -853 0 -109 0 -108 -132 -254 -133 -254 -106 -35 c-58 -20 -113 -41
-121 -48 -9 -7 -152 -189 -318 -405 -196 -255 -305 -405 -310 -427 -5 -24 -3
-41 9 -60 22 -38 715 -465 752 -465 15 0 39 10 53 23 17 15 127 251 337 722
171 385 320 719 330 742 l18 42 58 -26 c76 -34 125 -70 150 -107 11 -17 59
-125 108 -241 127 -305 128 -305 192 -305 28 0 349 132 396 163 49 32 45 53
-59 417 l-99 340 171 171 171 171 40 -25 c166 -105 421 -200 654 -243 186 -35
517 -29 719 12 94 19 120 32 139 66 14 24 11 50 -36 324 -66 378 -64 375 -213
343 -130 -29 -343 -36 -462 -15 -114 19 -251 62 -340 107 -69 34 -207 124
-251 164 l-29 25 16 67 15 66 216 217 217 218 -3 41 -3 42 721 722 c397 397
727 734 732 749 20 52 -25 118 -79 118 -25 0 -72 -23 -89 -44 -12 -14 -18 -12
-52 19 -39 35 -65 41 -106 25z m-991 -1192 l-267 -268 -35 35 -35 35 254 254
253 254 49 -22 48 -21 -267 -267z m-447 -358 l90 -90 -148 -148 -147 -147 -92
93 -93 92 145 145 c80 80 147 145 150 145 3 0 46 -41 95 -90z m-406 -434 l104
-105 -12 -68 -12 -69 -564 -564 -565 -565 -100 100 -100 100 0 70 0 70 567
567 c313 313 570 568 573 568 3 0 52 -47 109 -104z m237 -469 c174 -134 379
-223 603 -261 110 -19 307 -21 417 -5 60 9 78 9 84 -1 10 -16 64 -349 58 -355
-18 -19 -148 -30 -343 -29 -188 0 -235 3 -325 22 -230 49 -449 139 -624 255
-114 77 -205 148 -206 162 0 10 250 265 261 265 3 0 37 -24 75 -53z m-408
-395 l53 -47 -45 -45 -46 -44 -55 54 -55 54 37 38 c20 21 42 38 48 38 5 0 34
-22 63 -48z m-220 -215 l52 -53 -35 -34 -35 -34 -50 49 c-28 27 -50 54 -50 59
0 11 50 66 60 66 3 0 29 -24 58 -53z m-170 -220 l73 -73 89 -309 c49 -170 89
-310 87 -311 -6 -5 -172 -74 -178 -74 -4 0 -46 93 -94 206 -107 251 -151 312
-265 369 -19 10 -37 19 -40 22 -6 5 233 243 245 243 6 0 43 -33 83 -73z m-638
-179 c0 -13 -620 -1402 -630 -1412 -7 -7 -403 228 -483 286 -16 12 4 41 228
333 135 176 256 330 268 341 12 12 67 36 122 54 73 24 108 42 130 64 17 18 79
128 139 245 l108 213 59 -58 c32 -32 59 -62 59 -66z"/>
<path d="M1924 2382 c-61 -45 -194 -191 -195 -215 -4 -68 28 -107 89 -107 33
0 46 10 149 113 98 98 113 117 113 146 0 43 -46 91 -88 91 -16 0 -46 -13 -68
-28z"/>
</g>
</svg>
