<?xml version="1.0" standalone="no"?>
<!DOCTYPE svg PUBLIC "-//W3C//DTD SVG 20010904//EN"
 "http://www.w3.org/TR/2001/REC-SVG-20010904/DTD/svg10.dtd">
<svg version="1.0" xmlns="http://www.w3.org/2000/svg"
 width="512.000000pt" height="512.000000pt" viewBox="0 0 512.000000 512.000000"
 preserveAspectRatio="xMidYMid meet">

<g transform="translate(0.000000,512.000000) scale(0.100000,-0.100000)"
fill="#000000" stroke="none">
<path d="M4690 4893 c-14 -9 -58 -46 -98 -82 -73 -65 -102 -104 -102 -139 0
-10 -24 -39 -54 -65 l-54 -47 -82 95 c-98 113 -144 140 -235 139 -69 -1 -120
-23 -178 -79 -54 -53 -74 -98 -81 -190 -3 -44 -9 -110 -12 -147 l-6 -67 -51
-24 c-67 -31 -109 -67 -159 -136 -49 -67 -68 -84 -133 -118 -76 -40 -113 -71
-156 -134 -42 -63 -75 -91 -157 -134 -50 -27 -88 -64 -175 -169 -22 -26 -62
-58 -90 -73 -116 -58 -197 -156 -197 -239 0 -38 -5 -46 -54 -88 -30 -25 -57
-46 -60 -46 -2 0 -50 51 -106 114 -111 126 -157 157 -246 164 -28 2 -69 -1
-90 -8 -44 -15 -681 -369 -731 -406 -18 -14 -44 -44 -58 -68 -28 -47 -36 -111
-50 -401 -6 -126 -6 -132 19 -180 l25 -49 -55 -49 c-61 -55 -84 -92 -84 -137
0 -39 21 -90 49 -114 11 -11 21 -25 21 -32 0 -7 -201 -190 -448 -405 -594
-521 -632 -556 -653 -604 -21 -46 -24 -111 -8 -166 29 -95 273 -366 435 -481
129 -92 186 -118 258 -118 47 0 75 6 114 26 95 47 95 48 278 603 91 278 182
538 201 578 42 87 127 184 186 212 46 22 100 27 140 12 66 -26 139 -138 176
-271 18 -65 50 -290 66 -472 8 -84 34 -125 99 -157 46 -23 52 -24 110 -12 134
27 366 119 413 163 12 11 27 36 34 55 18 56 3 100 -50 152 -27 26 -54 57 -60
70 -7 13 -39 128 -70 257 l-58 234 36 22 c55 35 162 131 201 182 19 25 37 45
40 45 3 1 34 -24 70 -55 248 -213 561 -344 862 -361 97 -5 109 -4 141 16 21
12 44 40 56 64 29 61 91 387 82 429 -19 85 -56 111 -190 138 -280 56 -565 204
-713 370 l-56 63 21 29 c18 24 19 33 10 57 -10 27 -7 31 38 70 41 35 52 40 68
31 11 -5 34 -10 51 -10 76 0 79 3 533 572 238 299 442 557 454 574 12 17 48
53 79 79 l56 48 32 -35 c37 -43 64 -58 103 -58 39 1 60 14 167 108 130 114
142 161 67 251 l-28 34 49 44 c27 23 59 43 71 43 43 1 103 38 186 116 80 75
84 81 88 129 4 43 1 56 -24 91 -34 51 -89 111 -127 142 -35 27 -110 30 -146 5z
m126 -130 c51 -55 76 -95 66 -109 -4 -5 -39 -38 -79 -72 l-71 -63 -40 43 c-54
59 -92 105 -92 111 0 9 150 137 161 137 5 0 30 -21 55 -47z m-677 -95 c32 -24
421 -464 421 -478 0 -11 -163 -150 -177 -150 -6 0 -21 12 -31 28 l-20 28 39
33 c59 49 73 74 58 103 -7 13 -77 96 -156 186 -144 161 -145 162 -187 162 -82
0 -103 -54 -105 -272 -1 -38 -4 -68 -8 -68 -5 1 -23 14 -42 30 l-34 29 8 132
c4 73 11 143 15 155 10 24 72 85 98 96 36 14 89 8 121 -14z m430 -155 l31 -37
-37 -38 -37 -38 -24 23 c-46 42 -47 56 -11 93 18 19 36 34 40 34 4 0 21 -17
38 -37z m-431 -102 l32 -40 -40 -31 -40 -32 0 71 c0 39 4 71 8 71 5 0 23 -18
40 -39z m139 -159 l31 -38 -85 -75 c-47 -41 -88 -75 -92 -77 -4 -1 -22 15 -39
37 l-32 39 88 76 c48 42 90 76 93 76 3 0 19 -17 36 -38z m-335 -142 c46 -50
87 -101 92 -115 11 -28 61 38 -481 -642 -349 -438 -396 -493 -421 -493 -23 0
-52 28 -184 179 -87 98 -162 190 -169 204 -25 56 27 128 131 183 66 35 93 59
197 182 23 27 59 57 80 67 73 35 124 77 180 152 47 61 71 83 123 111 84 45
115 72 168 143 55 77 113 119 163 119 35 0 44 -7 121 -90z m-1687 -802 c15 -7
155 -158 311 -336 l284 -324 -20 -25 c-11 -14 -20 -33 -20 -42 0 -9 25 -45 55
-79 30 -35 55 -68 55 -73 0 -9 -226 -335 -251 -363 -5 -6 -33 14 -68 48 -33
31 -76 63 -95 71 -51 22 -116 19 -167 -8 -24 -12 -153 -118 -286 -235 -201
-177 -245 -212 -260 -204 -31 17 -109 24 -147 14 l-37 -11 -97 110 c-53 61
-98 113 -99 117 0 4 39 42 88 85 54 47 89 86 89 97 0 11 -47 74 -105 141
l-105 122 0 81 c0 163 20 369 38 401 20 34 48 51 437 269 251 140 285 156 327
156 26 0 59 -5 73 -12z m632 -360 l93 -106 -40 -36 c-22 -20 -44 -36 -48 -36
-5 0 -66 66 -137 146 l-129 147 44 40 43 41 41 -45 c23 -25 83 -93 133 -151z
m208 -663 c149 -107 352 -194 560 -240 121 -26 145 -39 145 -78 0 -19 -5 -20
-87 -13 -233 18 -472 119 -695 294 l-58 45 21 28 c11 16 25 26 31 23 6 -4 44
-30 83 -59z m-1665 -90 l34 -36 -59 -54 c-33 -30 -63 -54 -66 -55 -3 0 -18 16
-32 37 -19 26 -23 41 -17 53 11 20 87 90 98 90 4 0 23 -16 42 -35z m1528 -34
c214 -178 537 -311 754 -311 l61 0 -6 -41 c-3 -22 -8 -43 -10 -46 -10 -10
-212 17 -287 38 -157 44 -342 139 -489 250 -135 103 -126 92 -106 122 9 15 22
27 27 27 5 0 30 -18 56 -39z m-468 -97 c65 -55 77 -122 33 -175 -15 -18 -57
-57 -93 -86 l-65 -54 -43 48 c-101 113 -115 134 -104 145 9 9 17 7 34 -9 51
-47 134 -72 180 -54 60 23 38 101 -28 101 -34 0 -94 26 -94 41 0 4 17 21 37
38 49 40 99 42 143 5z m380 -63 c245 -199 585 -341 817 -341 52 0 54 -1 48
-22 -13 -42 -34 -50 -110 -43 -293 27 -561 140 -794 336 -39 33 -71 64 -71 70
0 20 32 59 44 52 6 -4 36 -27 66 -52z m-1432 -226 l70 -80 -62 -66 c-33 -36
-80 -102 -103 -145 -40 -77 -142 -369 -299 -859 -67 -210 -81 -244 -110 -272
-46 -43 -98 -51 -158 -24 -127 56 -352 253 -470 413 -69 92 -83 133 -62 181
15 36 19 40 706 645 l375 330 22 -22 c12 -11 53 -57 91 -101z m773 -11 c46
-53 87 -101 90 -107 4 -7 35 -126 69 -264 65 -266 79 -300 146 -356 54 -45 46
-62 -48 -107 -101 -47 -227 -89 -289 -97 -67 -8 -73 6 -93 210 -30 305 -74
470 -154 575 l-35 46 64 55 c35 31 84 75 109 98 25 24 48 43 51 43 3 0 44 -43
90 -96z"/>
<path d="M2078 3206 c-22 -8 -121 -87 -240 -191 -268 -235 -295 -262 -313
-310 -24 -63 -42 -186 -33 -222 18 -70 109 -106 169 -65 41 27 573 497 602
532 103 122 -34 311 -185 256z m94 -113 c18 -16 24 -59 10 -79 -20 -29 -582
-513 -586 -505 -6 10 19 154 29 171 6 10 385 346 453 403 38 31 67 34 94 10z"/>
<path d="M2435 2806 c-42 -19 -246 -202 -267 -239 -20 -36 -23 -98 -7 -130 6
-12 23 -35 38 -50 l26 -28 -33 -30 -33 -29 -80 92 c-95 109 -125 138 -145 138
-13 0 -243 -193 -271 -228 -27 -34 -3 -82 40 -82 14 0 62 35 125 90 l102 89
42 -47 c23 -26 57 -63 76 -83 l34 -37 -186 -163 c-193 -169 -207 -187 -170
-224 9 -9 27 -15 40 -13 14 2 196 155 445 373 509 446 479 418 479 444 0 28
-83 121 -133 149 -46 25 -79 27 -122 8z m104 -125 l21 -29 -126 -111 c-70 -61
-129 -111 -133 -110 -3 0 -17 14 -30 30 -17 22 -21 35 -15 48 5 10 56 60 113
110 114 100 137 109 170 62z"/>
</g>
</svg>
