<?xml version="1.0" standalone="no"?>
<!DOCTYPE svg PUBLIC "-//W3C//DTD SVG 20010904//EN"
 "http://www.w3.org/TR/2001/REC-SVG-20010904/DTD/svg10.dtd">
<svg version="1.0" xmlns="http://www.w3.org/2000/svg"
 width="512.000000pt" height="512.000000pt" viewBox="0 0 512.000000 512.000000"
 preserveAspectRatio="xMidYMid meet">

<g transform="translate(0.000000,512.000000) scale(0.100000,-0.100000)"
fill="#000000" stroke="none">
<path d="M3112 5030 c-13 -5 -224 -142 -470 -303 -246 -161 -458 -301 -472
-310 -25 -16 -42 -12 -498 113 -488 134 -544 145 -602 115 -41 -21 -979 -673
-1014 -704 -36 -32 -56 -79 -56 -128 0 -25 222 -646 651 -1823 359 -982 657
-1796 664 -1810 47 -91 163 -127 253 -77 22 12 201 168 398 347 l357 324 395
97 c218 54 406 102 420 108 13 6 171 105 350 220 180 114 383 242 452 283
l125 76 446 -36 446 -36 48 25 c64 31 106 85 112 141 6 60 -636 3093 -669
3158 -18 36 -34 50 -78 72 -50 24 -99 32 -590 89 -590 69 -635 73 -668 59z
m179 -185 c63 -7 301 -35 529 -61 l416 -48 83 -391 c46 -214 89 -408 96 -430
18 -57 46 -183 50 -230 5 -45 63 -310 95 -425 11 -41 23 -100 26 -130 4 -30
24 -138 46 -239 21 -101 37 -185 36 -186 -88 -65 -204 -165 -219 -189 -27 -44
-37 -86 -47 -200 -8 -87 -13 -102 -33 -119 -19 -15 -33 -18 -68 -13 -113 16
-178 102 -315 424 -149 348 -244 488 -344 508 -28 6 -36 1 -82 -47 -103 -107
-190 -338 -190 -503 0 -142 19 -186 153 -343 81 -95 129 -199 176 -383 22 -85
41 -172 43 -193 l3 -38 -355 -226 -355 -225 -325 -80 c-179 -43 -370 -90 -425
-103 -88 -22 -104 -29 -145 -68 -25 -24 -130 -122 -235 -218 -104 -95 -242
-221 -305 -279 -103 -94 -121 -106 -69 -45 16 18 18 63 22 475 4 405 7 466 25
560 34 175 69 303 164 588 74 225 98 285 137 345 63 96 181 235 275 324 92 85
128 156 181 350 19 69 35 127 35 129 0 1 -41 25 -92 54 l-92 52 -15 -23 c-9
-13 -40 -50 -70 -82 -66 -69 -142 -109 -265 -137 -89 -20 -236 -82 -236 -99 0
-5 -48 -89 -107 -188 -235 -393 -408 -773 -488 -1076 -11 -42 -21 -63 -26 -55
-11 19 -801 2190 -806 2214 -4 18 63 69 473 354 l477 332 426 -116 c234 -64
465 -127 512 -140 l87 -23 148 97 c82 54 150 97 151 96 2 -2 -8 -36 -22 -77
-38 -111 -91 -306 -126 -464 -25 -112 -32 -171 -36 -295 l-5 -155 70 -41 70
-42 11 102 c6 56 16 160 21 232 15 216 86 486 209 794 l42 105 237 156 c130
86 242 155 248 152 6 -2 62 -10 125 -18z m-1811 -3286 c-12 -46 -56 -192 -99
-324 -44 -132 -87 -276 -97 -320 -9 -44 -21 -84 -24 -88 -8 -9 -80 187 -80
216 0 29 78 216 136 326 67 127 177 298 181 284 2 -6 -6 -48 -17 -94z"/>
<path d="M2536 3823 c12 -50 144 -816 144 -835 0 -5 14 -8 30 -8 17 0 30 3 30
8 0 4 -13 79 -29 167 -49 267 -56 325 -40 340 13 12 156 101 286 179 29 17 53
34 53 37 0 3 -28 12 -62 21 -35 9 -139 37 -233 62 -93 25 -173 46 -177 46 -3
0 -4 -8 -2 -17z"/>
</g>
</svg>
